<?xml version="1.0" encoding="UTF-8" standalone="no"?> <svg id="Layer_1" data-name="Layer 1" xmlns="http://www.w3.org/2000/svg" viewBox="0 0 64 64"><circle cx="36" cy="28" r="27" fill="#aecef8"/><polygon points="30 22 30 28 34 28 34 39 30 39 30 45 44 45 44 39 40 39 40 22 30 22" fill="#d9575d"/><circle cx="35.5" cy="13.5" r="4.5" fill="#d9575d"/><path d="M1,63V49a7,7,0,0,1,7-7h8a7,7,0,0,1,7,7V63Z" fill="#2970cc"/><circle cx="12" cy="35.5" r="6.5" fill="#e69e45"/><polygon points="12 42.1 9 51 12 55 15 51 12 42.1" fill="#f2f2f2"/></svg>