<?xml version="1.0" encoding="utf-8"?>
<!-- Generator: Adobe Illustrator 25.4.1, SVG Export Plug-In . SVG Version: 6.00 Build 0)  -->
<svg version="1.1" id="Two_Tone" xmlns="http://www.w3.org/2000/svg" xmlns:xlink="http://www.w3.org/1999/xlink" x="0px" y="0px"
	 viewBox="0 0 64 64" enable-background="new 0 0 64 64" xml:space="preserve">
<path fill="#FFE5A8" d="M55,34.73c4.76,2.52,8,7.52,8,13.27c0,8.28-6.72,15-15,15c-0.36,0-0.71-0.01-1.06-0.04
	C39.15,62.42,33,55.92,33,48c0-8.28,6.72-15,15-15C50.53,33,52.91,33.63,55,34.73z M47.16,56.74l9.28-13l-4.88-3.48l-5.72,8
	L42.3,45.6l-3.6,4.8L47.16,56.74z"/>
<path fill="#F2883E" d="M57.859,46.554l-8.104,11.353c-0.326,0.457-0.964,0.556-1.414,0.219L41.501,53
	c-0.442-0.331-0.532-0.958-0.2-1.4l2.399-3.199c0.332-0.442,0.959-0.531,1.401-0.199l1.921,1.444
	c0.449,0.337,1.088,0.239,1.414-0.218l4.544-6.355c0.321-0.449,0.945-0.553,1.394-0.233l3.252,2.319
	C58.075,45.48,58.18,46.105,57.859,46.554z"/>
<polygon fill="#FBBF76" points="56.44,43.74 47.16,56.74 38.7,50.4 42.3,45.6 45.84,48.26 51.56,40.26 "/>
<path fill="#FBDE08" d="M55,16v18.73c-2.09-1.1-4.47-1.73-7-1.73c-8.28,0-15,6.72-15,15c0,7.92,6.15,14.42,13.94,14.96V63H2
	c-0.55,0-1-0.45-1-1V16h20v9h14v-9H55z"/>
<path fill="#FFC008" d="M55,34.73V20.808c-1.627,4.19-3.673,8.305-6.085,12.22C51.104,33.161,53.164,33.764,55,34.73z"/>
<path fill="#FFC008" d="M1.06,62.296C1.188,62.7,1.555,63,2,63h44.94v-0.04c-6.783-0.47-12.318-5.46-13.637-11.97
	C24.039,58.481,12.941,63.031,1.06,62.296z"/>
<path fill="#EAA22D" d="M50.23,1.68L55,16H35L34,1h15.28C49.71,1,50.09,1.28,50.23,1.68z"/>
<polygon fill="#F4B36C" points="35,16 35,25 21,25 21,16 28,16 "/>
<path fill="#F2883E" d="M35,17.262c-2.542,3.296-5.713,6.006-9.466,7.738H35V17.262z"/>
<polygon fill="#FFE5A8" points="34,1 35,16 28,16 28,1 "/>
<polygon fill="#FFE5A8" points="28,1 28,16 21,16 22,1 "/>
<path fill="#EAA22D" d="M22,1l-1,15H1L5.77,1.68C5.91,1.28,6.29,1,6.72,1H22z"/>
<g>
	<path fill="#C92206" d="M17,49H5c-0.553,0-1,0.448-1,1s0.447,1,1,1h12c0.553,0,1-0.448,1-1S17.553,49,17,49z"/>
	<path fill="#C92206" d="M17,53H5c-0.553,0-1,0.448-1,1s0.447,1,1,1h12c0.553,0,1-0.448,1-1S17.553,53,17,53z"/>
	<path fill="#C92206" d="M17,57H5c-0.553,0-1,0.448-1,1s0.447,1,1,1h12c0.553,0,1-0.448,1-1S17.553,57,17,57z"/>
	<path fill="#C92206" d="M48,32c-1.83,0-3.624,0.307-5.333,0.911c-0.521,0.184-0.794,0.755-0.609,1.276
		c0.184,0.52,0.754,0.796,1.275,0.609C44.828,34.268,46.398,34,48,34c7.72,0,14,6.28,14,14s-6.28,14-14,14s-14-6.28-14-14
		c0-4.833,2.442-9.261,6.534-11.845c0.467-0.295,0.606-0.913,0.312-1.38c-0.295-0.466-0.911-0.605-1.38-0.312
		C34.791,37.417,32,42.477,32,48c0,6.02,3.345,11.269,8.271,14H2V17h18v8c0,0.552,0.447,1,1,1h14c0.553,0,1-0.448,1-1l-0.002-8H54
		v14c0,0.552,0.447,1,1,1s1-0.448,1-1V16c0-0.111-0.03-0.213-0.063-0.313l0.011-0.004L51.177,1.368C50.904,0.55,50.142,0,49.279,0
		H6.721C5.858,0,5.096,0.55,4.824,1.367L0.052,15.684l0.011,0.004C0.03,15.787,0,15.889,0,16v46c0,1.103,0.897,2,2,2h44.938
		c0.076,0,0.142-0.027,0.213-0.043C47.434,63.972,47.713,64,48,64c8.822,0,16-7.178,16-16S56.822,32,48,32z M34,24H22l-0.002-7H34
		V24z M29,15V2h4.064l0.869,13H29z M53.613,15H35.936L35.069,2h14.21L53.613,15z M6.721,2h14.21l-0.129,1.934
		c-0.036,0.551,0.381,1.027,0.932,1.064C21.756,5,21.778,5,21.801,5c0.521,0,0.962-0.405,0.997-0.934L22.936,2H27v13h-4.931
		l0.462-6.934c0.036-0.551-0.381-1.027-0.932-1.064c-0.538-0.045-1.027,0.38-1.064,0.931L20.066,15H2.387L6.721,2z"/>
	<path fill="#C92206" d="M37.709,50.541c0.038,0.263,0.178,0.5,0.391,0.659l8.457,6.342c0.174,0.131,0.385,0.2,0.6,0.2
		c0.051,0,0.102-0.004,0.153-0.012c0.266-0.041,0.504-0.188,0.66-0.407l9.285-12.999c0.154-0.216,0.217-0.484,0.173-0.746
		c-0.044-0.261-0.189-0.495-0.405-0.649l-4.883-3.488c-0.216-0.154-0.484-0.217-0.745-0.172c-0.262,0.043-0.495,0.189-0.649,0.405
		l-5.12,7.168L42.901,44.8c-0.442-0.332-1.069-0.242-1.4,0.2l-3.602,4.8C37.74,50.012,37.672,50.279,37.709,50.541z M42.501,47
		l2.742,2.058c0.216,0.162,0.483,0.23,0.754,0.188c0.266-0.041,0.504-0.188,0.66-0.407l5.134-7.188l3.256,2.325l-8.109,11.352
		L40.1,50.2L42.501,47z"/>
</g>
</svg>
