<?xml version="1.0" encoding="UTF-8"?>
<!DOCTYPE svg PUBLIC "-//W3C//DTD SVG 1.1//EN" "http://www.w3.org/Graphics/SVG/1.1/DTD/svg11.dtd">
<!-- Creator: CorelDRAW -->
<svg xmlns="http://www.w3.org/2000/svg" xml:space="preserve" width="7.83333in" height="7.83333in" style="shape-rendering:geometricPrecision; text-rendering:geometricPrecision; image-rendering:optimizeQuality; fill-rule:evenodd; clip-rule:evenodd"
viewBox="0 0 7.83333 7.83333"
 xmlns:xlink="http://www.w3.org/1999/xlink">
 <defs>
  <style type="text/css">
   <![CDATA[
    .fil0 {fill:#7BCB9E}
    .fil4 {fill:#C09A8E}
    .fil3 {fill:whitesmoke}
    .fil2 {fill:#FFCCBC}
    .fil1 {fill:#413B32;fill-rule:nonzero}
   ]]>
  </style>
 </defs>
 <g id="Layer_x0020_1">
  <metadata id="CorelCorpID_0Corel-Layer"/>
  <circle class="fil0" cx="3.91667" cy="3.91667" r="3.91667"/>
  <g id="_319091664">
   <path id="_319092192" class="fil1" d="M4.55167 1.35863l1.58635 0.27135 -0.013437 0.078752 0.0134882 -0.0788543c0.0359055,0.00614173 0.0621024,0.0353346 0.0660118,0.0697992l0.271315 1.58613 0.000106299 -1.9685e-005c0.00461811,0.0269921 -0.00487402,0.0531299 -0.023126,0.0708858l-3.09655 3.09655 3.93701e-006 3.93701e-006c-0.0312402,0.0312402 -0.0818937,0.0312402 -0.113134,0l-0.000287402 -0.000295276 -1.86232 -1.86232 -3.93701e-006 3.93701e-006c-0.0312402,-0.0312402 -0.0312402,-0.0818937 0,-0.113134l0.000295276 -0.000287402 3.09709 -3.09709 -3.93701e-006 -3.93701e-006c0.0201339,-0.0201339 0.0483268,-0.0272874 0.0741969,-0.0214685zm1.5037 0.419315l-1.49394 -0.255543 -3.01165 3.01165 1.74948 1.74948 3.01165 -3.01165 -0.255543 -1.49394z"/>
   <path id="_319092288" class="fil1" d="M5.81183 1.99715l3.93701e-006 3.93701e-006c0.0689173,0.0689173 0.103378,0.159244 0.103378,0.249559 0,0.0903189 -0.0344606,0.180642 -0.103378,0.249563l-3.93701e-006 3.93701e-006c-0.0689173,0.0689173 -0.159248,0.103382 -0.249563,0.103382 -0.0903189,0 -0.180646,-0.0344646 -0.249567,-0.103382l-3.93701e-006 -3.93701e-006c-0.0689173,-0.0689173 -0.103378,-0.159248 -0.103378,-0.249563 0,-0.090315 0.0344606,-0.180642 0.103378,-0.249559l3.93701e-006 -3.93701e-006c0.0689213,-0.0689213 0.159248,-0.103382 0.249567,-0.103382 0.090315,0 0.180646,0.0344606 0.249563,0.103382zm-0.113122 0.11313l-3.93701e-006 -3.93701e-006c-0.0376693,-0.0376693 -0.0870551,-0.0565079 -0.136437,-0.0565079 -0.0493858,0 -0.0987717,0.0188386 -0.136441,0.0565079l-3.93701e-006 3.93701e-006c-0.0376654,0.0376654 -0.0565039,0.0870512 -0.0565039,0.136433 0,0.0493819 0.0188386,0.0987717 0.0565039,0.136437l3.93701e-006 3.93701e-006c0.0376693,0.0376693 0.0870551,0.0565079 0.136441,0.0565079 0.0493819,0 0.0987717,-0.0188425 0.136437,-0.0565079l3.93701e-006 -3.93701e-006c0.0376693,-0.0376693 0.0565039,-0.0870512 0.0565039,-0.136437 0,-0.0493819 -0.0188386,-0.0987677 -0.0565039,-0.136433z"/>
   <path id="_319092336" class="fil1" d="M4.4293 2.28572l1.11831 1.11831c0.0312402,0.0312402 0.0312402,0.0818937 0,0.113134l-2.16846 2.16846c-0.0312402,0.0312402 -0.0818976,0.0312402 -0.113138,0l-1.11831 -1.11831c-0.0312402,-0.0312402 -0.0312402,-0.0818976 0,-0.113138l2.16846 -2.16846c0.0312402,-0.0312402 0.0818937,-0.0312402 0.113138,0zm0.948602 1.17488l-1.00517 -1.00517 -2.05532 2.05532 1.00517 1.00517 2.05532 -2.05532z"/>
   <path id="_319092216" class="fil1" d="M4.48177 2.8931c0.0256417,-0.0256417 0.0211102,-0.0717638 -0.010126,-0.103 -0.0312362,-0.0312362 -0.0773583,-0.0357677 -0.103,-0.010126l-1.72669 1.7267c-0.0256457,0.0256417 -0.0211102,0.0717598 0.010126,0.102996 0.0312362,0.0312362 0.0773543,0.0357717 0.103,0.0101299l1.72669 -1.7267z"/>
   <path id="_319091712" class="fil1" d="M4.76756 3.17889c0.0256457,-0.0256457 0.0211102,-0.0717638 -0.010126,-0.103 -0.0312362,-0.0312362 -0.0773543,-0.0357717 -0.103,-0.010126l-1.72669 1.72669c-0.0256457,0.0256417 -0.0211102,0.0717638 0.010126,0.103 0.0312362,0.0312362 0.0773543,0.0357677 0.103,0.010126l1.72669 -1.72669z"/>
   <path id="_319092456" class="fil1" d="M5.05335 3.46468c0.0256457,-0.0256457 0.0211102,-0.0717638 -0.010126,-0.103 -0.0312362,-0.0312362 -0.0773543,-0.0357717 -0.103,-0.010126l-1.72669 1.72669c-0.0256457,0.0256457 -0.0211102,0.0717638 0.010126,0.103 0.0312362,0.0312362 0.0773543,0.0357717 0.103,0.010126l1.72669 -1.72669z"/>
   <path id="_319091112" class="fil2" d="M4.4293 2.28572l1.11831 1.11831c0.0312402,0.0312402 0.0312402,0.0818937 0,0.113134l-2.16846 2.16846c-0.0312402,0.0312402 -0.0818976,0.0312402 -0.113138,0l-1.11831 -1.11831c-0.0312402,-0.0312402 -0.0312402,-0.0818976 0,-0.113138l2.16846 -2.16846c0.0312402,-0.0312402 0.0818937,-0.0312402 0.113138,0zm1.62608 -0.507776l-1.49394 -0.255543 -3.01165 3.01165 1.74949 1.74948 3.01165 -3.01165 -0.255543 -1.49394zm-0.742689 0.718335l0 0zm7.87402e-006 -0.499126l0 0zm-0.103382 0.249563c0,-0.090315 0.0344567,-0.180642 0.103382,-0.249563 0.0689213,-0.0689213 0.159244,-0.103382 0.249567,-0.103382 0.090315,0 0.180646,0.0344606 0.249567,0.103386 0.0689173,0.0689173 0.103374,0.159244 0.103374,0.249559 0,0.0903189 -0.0344606,0.180642 -0.103378,0.249567 -0.0689173,0.0689173 -0.159248,0.103382 -0.249563,0.103382 -0.0903228,0 -0.180646,-0.0344646 -0.249575,-0.103386 -0.0689173,-0.0689173 -0.103374,-0.159248 -0.103374,-0.249563z"/>
   <path id="_319091088" class="fil3" d="M5.3779 3.4606l-1.00517 -1.00517 -2.05532 2.05532 1.00517 1.00517 2.05532 -2.05532zm-0.437677 -0.109043c0.0256457,-0.0256496 0.0717638,-0.0211142 0.103,0.010122 0.0312362,0.0312362 0.0357717,0.0773543 0.010126,0.103004l-1.72669 1.72669c-0.0256457,0.0256457 -0.0717638,0.0211142 -0.103,-0.010122 -0.0312362,-0.0312362 -0.0357717,-0.0773583 -0.010126,-0.103004l1.72669 -1.72669zm-0.285787 -0.285787c0.0256457,-0.0256496 0.0717638,-0.0211142 0.103,0.010122 0.0312362,0.0312362 0.0357717,0.0773543 0.010126,0.103l-1.72669 1.72669c-0.0256457,0.0256457 -0.0717638,0.0211142 -0.103,-0.010126 -0.0312362,-0.0312323 -0.0357717,-0.0773543 -0.010126,-0.103l1.72669 -1.72669zm-0.182787 -0.275665c0.0312362,0.0312362 0.0357717,0.0773543 0.010126,0.103l-1.72669 1.72669c-0.0256457,0.0256457 -0.0717638,0.0211142 -0.103,-0.010126 -0.0312362,-0.0312323 -0.0357717,-0.0773543 -0.010126,-0.103l1.72669 -1.72669c0.0256457,-0.0256457 0.0717598,-0.0211102 0.103,0.010126z"/>
   <path id="_319091304" class="fil4" d="M5.32516 2.50816l-0.336717 0.336717 0.559157 0.55915c0.0312441,0.031248 0.0312441,0.0818976 0,0.113138l-2.16846 2.16846c-0.0312402,0.0312362 -0.0818937,0.0312362 -0.113138,-3.93701e-006l-0.559154 -0.559154 -0.282327 0.282327 0.87474 0.87474 3.01166 -3.01165 -0.255547 -1.49394 -0.231673 0.231673c0.061,0.0671535 0.0915039,0.15213 0.0915039,0.237102 0,0.090315 -0.0344646,0.180638 -0.103382,0.249563 -0.0689213,0.0689173 -0.159252,0.103382 -0.249567,0.103382 -0.0849646,3.93701e-006 -0.169945,-0.0305 -0.237098,-0.0915039z"/>
  </g>
 </g>
</svg>
