<?xml version="1.0" encoding="UTF-8" standalone="no"?> <svg width="512" height="512" viewBox="0 0 512 512" fill="none" xmlns="http://www.w3.org/2000/svg">
<path d="M368 336H112L56 128H392L368 336Z" fill="#4178A2"/>
<path d="M392 136C391.6 136 391.2 136 390.8 135.9C386.4 135.2 383.4 131.1 384.1 126.8L400.1 22.8C400.7 18.9 404.1 16 408 16H456C460.4 16 464 19.6 464 24C464 28.4 460.4 32 456 32H414.9L399.9 129.2C399.3 133.2 395.9 136 392 136Z" fill="#58B2B7"/>
<path d="M368 424H152C147.6 424 144 420.4 144 416C144 411.6 147.6 408 152 408H368C385.6 408 400 393.6 400 376C400 358.4 385.6 344 368 344H152C147.6 344 144 340.4 144 336C144 331.6 147.6 328 152 328H368C394.5 328 416 349.5 416 376C416 402.5 394.5 424 368 424Z" fill="#58B2B7"/>
<path d="M152 288C143.2 288 136 280.8 136 272V192C136 183.2 143.2 176 152 176C160.8 176 168 183.2 168 192V272C168 280.8 160.8 288 152 288Z" fill="#58B2B7"/>
<path d="M224 288C215.2 288 208 280.8 208 272V192C208 183.2 215.2 176 224 176C232.8 176 240 183.2 240 192V272C240 280.8 232.8 288 224 288Z" fill="#58B2B7"/>
<path d="M296 288C287.2 288 280 280.8 280 272V192C280 183.2 287.2 176 296 176C304.8 176 312 183.2 312 192V272C312 280.8 304.8 288 296 288Z" fill="#58B2B7"/>
<path d="M376 224C420.183 224 456 188.183 456 144C456 99.8172 420.183 64 376 64C331.817 64 296 99.8172 296 144C296 188.183 331.817 224 376 224Z" fill="#FBBE62"/>
<path d="M424 128H392V96H360V128H328V160H360V192H392V160H424V128Z" fill="#58B2B7"/>
<path d="M144 488C166.091 488 184 470.091 184 448C184 425.909 166.091 408 144 408C121.909 408 104 425.909 104 448C104 470.091 121.909 488 144 488Z" fill="#4178A2"/>
<path d="M144 464C152.837 464 160 456.837 160 448C160 439.163 152.837 432 144 432C135.163 432 128 439.163 128 448C128 456.837 135.163 464 144 464Z" fill="#FBBE62"/>
<path d="M344 488C366.091 488 384 470.091 384 448C384 425.909 366.091 408 344 408C321.909 408 304 425.909 304 448C304 470.091 321.909 488 344 488Z" fill="#4178A2"/>
<path d="M344 464C352.837 464 360 456.837 360 448C360 439.163 352.837 432 344 432C335.163 432 328 439.163 328 448C328 456.837 335.163 464 344 464Z" fill="#FBBE62"/>
<path d="M152 168C138.8 168 128 178.8 128 192V272C128 285.2 138.8 296 152 296C165.2 296 176 285.2 176 272V192C176 178.8 165.2 168 152 168ZM160 272C160 276.4 156.4 280 152 280C147.6 280 144 276.4 144 272V192C144 187.6 147.6 184 152 184C156.4 184 160 187.6 160 192V272Z" fill="black"/>
<path d="M224 168C210.8 168 200 178.8 200 192V272C200 285.2 210.8 296 224 296C237.2 296 248 285.2 248 272V192C248 178.8 237.2 168 224 168ZM232 272C232 276.4 228.4 280 224 280C219.6 280 216 276.4 216 272V192C216 187.6 219.6 184 224 184C228.4 184 232 187.6 232 192V272Z" fill="black"/>
<path d="M410.1 62.9L414.9 32H456C460.4 32 464 28.4 464 24C464 19.6 460.4 16 456 16H408C404.1 16 400.7 18.9 400.1 22.8L394.7 58C388.7 56.7 382.4 56 376 56C335.8 56 301.8 83.1 291.3 120H55.9998C53.4998 120 51.1998 121.2 49.6998 123.1C48.1998 125.1 47.6998 127.6 48.2998 130L104.3 338C105.2 341.5 108.4 343.9 112 343.9H152H368C385.6 343.9 400 358.3 400 375.9C400 384.4 396.7 392.5 390.6 398.5C385.1 404 378 407.2 370.3 407.8C362.7 402.8 353.7 399.9 344 399.9C334.2 399.9 325.1 402.9 317.5 407.9H170.5C162.9 402.9 153.8 399.9 144 399.9C117.5 399.9 95.9998 421.4 95.9998 447.9C95.9998 474.4 117.5 495.9 144 495.9C170.5 495.9 192 474.4 192 447.9C192 439.2 189.6 431 185.5 423.9H302.4C298.3 431 295.9 439.2 295.9 447.9C295.9 474.4 317.4 495.9 343.9 495.9C370.4 495.9 391.9 474.4 391.9 447.9C391.9 438 388.9 428.9 383.8 421.2C390.5 418.9 396.7 415 401.9 409.8C411 400.7 416 388.7 416 375.9C416 352.5 399.1 332.9 376.9 328.7L388.2 231C431 225.1 464.1 188.2 464.1 143.8C464 107.6 441.7 76.2 410.1 62.9ZM144 480C126.4 480 112 465.6 112 448C112 430.4 126.4 416 144 416C161.6 416 176 430.4 176 448C176 465.6 161.6 480 144 480ZM344 480C326.4 480 312 465.6 312 448C312 430.4 326.4 416 344 416C361.6 416 376 430.4 376 448C376 465.6 361.6 480 344 480ZM297.7 184.2C299.6 187.8 301.7 191.3 304 194.5V272C304 276.4 300.4 280 296 280C291.6 280 288 276.4 288 272V192C288 187.6 291.6 184 296 184C296.6 184 297.2 184.1 297.7 184.2ZM152 328H118.1L66.3998 136H288.3C288.1 138.6 287.9 141.3 287.9 144C287.9 152.5 289.1 160.7 291.4 168.4C280.3 170.5 271.9 180.3 271.9 192V272C271.9 285.2 282.7 296 295.9 296C309.1 296 319.9 285.2 319.9 272V211.8C334.2 223.6 352.2 231 371.9 231.9L360.9 328H152ZM376 216C336.3 216 304 183.7 304 144C304 139.1 304.5 134.3 305.4 129.6C312.1 96.8 341.2 72 376 72C415.7 72 448 104.3 448 144C448 183.7 415.7 216 376 216Z" fill="black"/>
<path d="M400 120V96C400 91.6 396.4 88 392 88H360C355.6 88 352 91.6 352 96V120H328C323.6 120 320 123.6 320 128V160C320 164.4 323.6 168 328 168H352V192C352 196.4 355.6 200 360 200H392C396.4 200 400 196.4 400 192V168H424C428.4 168 432 164.4 432 160V128C432 123.6 428.4 120 424 120H400ZM416 152H392C387.6 152 384 155.6 384 160V184H368V160C368 155.6 364.4 152 360 152H336V136H360C364.4 136 368 132.4 368 128V104H384V128C384 132.4 387.6 136 392 136H416V152Z" fill="black"/>
<path d="M144 424C130.8 424 120 434.8 120 448C120 461.2 130.8 472 144 472C157.2 472 168 461.2 168 448C168 434.8 157.2 424 144 424ZM144 456C139.6 456 136 452.4 136 448C136 443.6 139.6 440 144 440C148.4 440 152 443.6 152 448C152 452.4 148.4 456 144 456Z" fill="black"/>
<path d="M344 424C330.8 424 320 434.8 320 448C320 461.2 330.8 472 344 472C357.2 472 368 461.2 368 448C368 434.8 357.2 424 344 424ZM344 456C339.6 456 336 452.4 336 448C336 443.6 339.6 440 344 440C348.4 440 352 443.6 352 448C352 452.4 348.4 456 344 456Z" fill="black"/>
</svg>
